<svg width="56" height="56" viewBox="0 0 56 56" fill="none" xmlns="http://www.w3.org/2000/svg">
<path fill-rule="evenodd" clip-rule="evenodd" d="M34.9721 21.5721C35.0577 21.4867 35.1255 21.3853 35.1718 21.2737C35.2181 21.162 35.242 21.0424 35.2421 20.9215C35.2422 20.8006 35.2184 20.6809 35.1723 20.5692C35.1261 20.4576 35.0583 20.3561 34.9729 20.2705C34.8875 20.185 34.7861 20.1172 34.6745 20.0708C34.5628 20.0245 34.4432 20.0006 34.3223 20.0006C34.2014 20.0005 34.0817 20.0242 33.97 20.0704C33.8584 20.1166 33.7569 20.1843 33.6713 20.2697L28.1209 25.8201L22.5721 20.2697C22.3994 20.097 22.1652 20 21.9209 20C21.6767 20 21.4424 20.097 21.2697 20.2697C21.097 20.4424 21 20.6767 21 20.9209C21 21.1652 21.097 21.3994 21.2697 21.5721L26.8201 27.1209L21.2697 32.6697C21.1842 32.7553 21.1164 32.8568 21.0701 32.9685C21.0238 33.0802 21 33.2 21 33.3209C21 33.4419 21.0238 33.5616 21.0701 33.6734C21.1164 33.7851 21.1842 33.8866 21.2697 33.9721C21.4424 34.1448 21.6767 34.2419 21.9209 34.2419C22.0419 34.2419 22.1616 34.218 22.2734 34.1718C22.3851 34.1255 22.4866 34.0577 22.5721 33.9721L28.1209 28.4217L33.6713 33.9721C33.844 34.1446 34.0782 34.2415 34.3223 34.2413C34.5664 34.2412 34.8004 34.144 34.9729 33.9713C35.1454 33.7986 35.2423 33.5645 35.2421 33.3204C35.242 33.0763 35.1448 32.8422 34.9721 32.6697L29.4217 27.1209L34.9721 21.5721Z" fill="#FC5A5A"/>
<circle cx="28" cy="28" r="27" stroke="#FC5A5A" stroke-width="2"/>
</svg>
